<?xml version="1.0"?>
<svg xmlns="http://www.w3.org/2000/svg" xmlns:xlink="http://www.w3.org/1999/xlink" version="1.1" id="Capa_1" x="0px" y="0px" viewBox="0 0 512 512" style="enable-background:new 0 0 512 512;" xml:space="preserve" width="512px" height="512px"><g><g>
	<g>
		<path d="M347,60h-48.58c-6.192-17.458-22.865-30-42.42-30h-17.57C232.239,12.539,215.556,0,196,0    c-19.556,0-36.239,12.539-42.43,30H136c-19.555,0-36.228,12.542-42.42,30H45C20.187,60,0,80.187,0,105v361    c0,24.867,20.096,46,45,46h302c24.872,0,45-21.096,45-46V105C392,80.187,371.813,60,347,60z M121,75c0-8.271,6.729-15,15-15h30    c8.284,0,15-6.716,15-15c0-8.271,6.729-15,15-15s15,6.729,15,15c0,8.284,6.716,15,15,15h30c8.271,0,15,6.729,15,15v15H121V75z     M362,466c0,8.523-7.009,16-15,16H45c-7.991,0-15-7.477-15-16V105c0-8.271,6.729-15,15-15h46v15c0,8.284,6.716,15,15,15h180    c8.284,0,15-6.716,15-15V90h46c8.271,0,15,6.729,15,15V466z" data-original="#000000" class="active-path" data-old_color="#000000" fill="#47495C"/>
	</g>
</g><g>
	<g>
		<path d="M176.606,154.393c-5.857-5.858-15.355-5.858-21.213,0L106,203.787l-19.394-19.393c-5.857-5.858-15.355-5.858-21.213,0    c-5.858,5.858-5.858,15.355,0,21.213l30.001,29.999C98.322,238.536,102.161,240,106,240s7.678-1.464,10.606-4.394l60-60    C182.464,169.748,182.464,160.251,176.606,154.393z" data-original="#000000" class="active-path" data-old_color="#000000" fill="#47495C"/>
	</g>
</g><g>
	<g>
		<path d="M176.606,244.393c-5.857-5.858-15.355-5.858-21.213,0L106,293.787l-19.394-19.393c-5.857-5.858-15.355-5.858-21.213,0    c-5.858,5.858-5.858,15.355,0,21.213l30.001,29.999C98.322,328.536,102.161,330,106,330s7.678-1.464,10.606-4.394l60-60    C182.464,259.748,182.464,250.251,176.606,244.393z" data-original="#000000" class="active-path" data-old_color="#000000" fill="#47495C"/>
	</g>
</g><g>
	<g>
		<path d="M127.213,405l19.394-19.394c5.858-5.858,5.858-15.355,0-21.213c-5.857-5.858-15.355-5.858-21.213,0L106,383.787    l-19.394-19.394c-5.857-5.858-15.355-5.858-21.213,0c-5.858,5.858-5.858,15.355,0,21.213L84.787,405l-19.394,19.394    c-5.857,5.857-5.857,15.355,0.001,21.212c5.857,5.858,15.356,5.858,21.213,0L106,426.213l19.394,19.394    c5.857,5.858,15.356,5.858,21.213,0c5.858-5.858,5.858-15.355,0-21.213L127.213,405z" data-original="#000000" class="active-path" data-old_color="#000000" fill="#47495C"/>
	</g>
</g><g>
	<g>
		<path d="M317,210h-91c-8.284,0-15,6.716-15,15s6.716,15,15,15h91c8.284,0,15-6.716,15-15S325.284,210,317,210z" data-original="#000000" class="active-path" data-old_color="#000000" fill="#47495C"/>
	</g>
</g><g>
	<g>
		<path d="M317,300h-91c-8.284,0-15,6.716-15,15s6.716,15,15,15h91c8.284,0,15-6.716,15-15S325.284,300,317,300z" data-original="#000000" class="active-path" data-old_color="#000000" fill="#47495C"/>
	</g>
</g><g>
	<g>
		<path d="M317,390h-91c-8.284,0-15,6.716-15,15s6.716,15,15,15h91c8.284,0,15-6.716,15-15S325.284,390,317,390z" data-original="#000000" class="active-path" data-old_color="#000000" fill="#47495C"/>
	</g>
</g><g>
	<g>
		<path d="M467,90c-24.813,0-45,20.187-45,45c0,9.044,0,227.476,0,240c0,1.46,0.259,3.205,0.754,4.696l30,91    C454.781,476.846,460.525,481,467,481c6.475,0,12.219-4.154,14.246-10.304l30-91C511.7,378.328,512,376.61,512,375    c0-5.674,0-234.24,0-240C512,110.187,491.813,90,467,90z M467,418.091l-12.384-37.565c7.761-3.92,17.008-3.92,24.769,0    L467,418.091z M482,349.596c-9.813-2.639-20.187-2.639-30,0V240h30V349.596z M482,210h-30v-30h30V210z M482,150h-30v-15    c0-8.271,6.729-15,15-15s15,6.729,15,15V150z" data-original="#000000" class="active-path" data-old_color="#000000" fill="#47495C"/>
	</g>
</g></g> </svg>
